<svg width="90" height="90" viewBox="0 0 90 90" fill="none" xmlns="http://www.w3.org/2000/svg">
<mask id="path-1-inside-1_13_5" fill="white">
<path d="M90 45C90 69.8528 69.8528 90 45 90C20.1472 90 0 69.8528 0 45C0 20.1472 20.1472 0 45 0C69.8528 0 90 20.1472 90 45ZM23.7378 45C23.7378 56.7428 33.2572 66.2622 45 66.2622C56.7428 66.2622 66.2622 56.7428 66.2622 45C66.2622 33.2572 56.7428 23.7378 45 23.7378C33.2572 23.7378 23.7378 33.2572 23.7378 45Z"/>
</mask>
<path d="M90 45C90 69.8528 69.8528 90 45 90C20.1472 90 0 69.8528 0 45C0 20.1472 20.1472 0 45 0C69.8528 0 90 20.1472 90 45ZM23.7378 45C23.7378 56.7428 33.2572 66.2622 45 66.2622C56.7428 66.2622 66.2622 56.7428 66.2622 45C66.2622 33.2572 56.7428 23.7378 45 23.7378C33.2572 23.7378 23.7378 33.2572 23.7378 45Z" stroke="#EAE2B7" stroke-width="6" mask="url(#path-1-inside-1_13_5)"/>
</svg>
