<svg width="166" height="166" viewBox="0 0 166 166" fill="none" xmlns="http://www.w3.org/2000/svg">
<path d="M41.3658 42.78L42.78 41.3657C46.8805 37.2652 53.5287 37.2652 57.6292 41.3657L124.097 107.834C128.198 111.934 128.198 118.583 124.097 122.683L122.683 124.097C118.583 128.198 111.934 128.198 107.834 124.097L74.5998 90.8632L41.3657 57.6292C37.2652 53.5287 37.2652 46.8805 41.3658 42.78Z" stroke="#00BBF9" stroke-width="3"/>
<rect x="50.9117" y="130.815" width="23" height="113" rx="10.5" transform="rotate(-135 50.9117 130.815)" stroke="#00BBF9" stroke-width="3"/>
<rect x="80.497" y="66.3423" width="26.8278" height="19.9795" transform="rotate(45 80.497 66.3423)" fill="#415A77"/>
<rect x="66.1443" y="85.1863" width="26.6134" height="20.0005" transform="rotate(-45 66.1443 85.1863)" fill="#415A77"/>
</svg>
